<?xml version="1.0" encoding="UTF-8" standalone="no"?>
<svg
   xmlns:dc="http://purl.org/dc/elements/1.1/"
   xmlns:cc="http://creativecommons.org/ns#"
   xmlns:rdf="http://www.w3.org/1999/02/22-rdf-syntax-ns#"
   xmlns:svg="http://www.w3.org/2000/svg"
   xmlns="http://www.w3.org/2000/svg"
   xmlns:xlink="http://www.w3.org/1999/xlink"
   width="552.85101mm"
   height="48.662594mm"
   viewBox="0 0 552.85102 48.662594"
   version="1.1"
   id="svg8">
  <defs
     id="defs2">
    <linearGradient
       id="linearGradient879">
      <stop
         style="stop-color:#7d858a;stop-opacity:1;"
         offset="0"
         id="stop875" />
      <stop
         style="stop-color:#7d858a;stop-opacity:0;"
         offset="1"
         id="stop877" />
    </linearGradient>
    <linearGradient
       xlink:href="#linearGradient879"
       id="linearGradient881"
       x1="-302.83279"
       y1="-199.22943"
       x2="-263.16641"
       y2="-199.22943"
       gradientUnits="userSpaceOnUse" />
  </defs>
  <metadata
     id="metadata5">
    <rdf:RDF>
      <cc:Work
         rdf:about="">
        <dc:format>image/svg+xml</dc:format>
        <dc:type
           rdf:resource="http://purl.org/dc/dcmitype/StillImage" />
        <dc:title></dc:title>
      </cc:Work>
    </rdf:RDF>
  </metadata>
  <g
     id="layer1"
     transform="translate(562.93856,81.877561)">
    <g
       id="g888"
       transform="rotate(-90,-281.3468,-57.646704)">
      <path
         style="fill:#e23d28;fill-opacity:1;stroke:#000000;stroke-width:0.264583px;stroke-linecap:butt;stroke-linejoin:miter;stroke-opacity:1"
         d="m -281.44824,213.48027 c -24.30118,-0.29314 -24.198,-19.11167 -24.198,-19.11167 l 10e-4,-177.6566 c 0,0 11.97363,-0.657929 12.08392,-14.966 0.11652,-15.116813 -12.08392,-15.120056 -12.08392,-15.120056 v -29.48215 h 24.198 m 0.001,256.336476 c 24.30118,-0.29314 24.198,-19.11167 24.198,-19.11167 l -0.001,-177.6566 c 0,0 -11.97363,-0.657929 -12.08392,-14.966 -0.11652,-15.116813 12.08392,-15.120056 12.08392,-15.120056 v -29.48215 h -24.198"
         id="path10" />
      <path
         style="fill:none;fill-opacity:1;stroke:#c50000;stroke-width:7.10695;stroke-linecap:round;stroke-linejoin:miter;stroke-miterlimit:4;stroke-dasharray:none;stroke-opacity:1"
         d="M -297.38453,35.302808 V 170.95522"
         id="path837" />
      <path
         style="fill:none;fill-opacity:1;stroke:#c50000;stroke-width:7.10695;stroke-linecap:round;stroke-linejoin:miter;stroke-miterlimit:4;stroke-dasharray:none;stroke-opacity:1"
         d="M -281.44721,35.302475 V 170.95489"
         id="path837-9" />
      <path
         style="fill:none;fill-opacity:1;stroke:#c50000;stroke-width:7.10695;stroke-linecap:round;stroke-linejoin:miter;stroke-miterlimit:4;stroke-dasharray:none;stroke-opacity:1"
         d="M -266.08853,35.302475 V 170.95488"
         id="path837-9-9" />
      <path
         style="fill:url(#linearGradient881);fill-opacity:1;stroke:#77777f;stroke-width:0.665;stroke-linecap:butt;stroke-linejoin:miter;stroke-miterlimit:4;stroke-dasharray:none;stroke-opacity:1"
         d="m -282.99973,-352.42076 h -8.8586 l -10.8244,48.494 10.8244,21.458 c -0.0668,60.07454 -0.13362,166.02322 -0.20042,226.09776 H -283 m 5.3e-4,-296.04976 h 8.8586 l 10.8244,48.494 -10.8244,21.458 c 0.0668,60.07454 0.13362,166.02322 0.20042,226.09776 h -9.05875"
         id="path869"
         transform="translate(1.55279,13.514794)" />
    </g>
  </g>
</svg>
